<?xml version="1.0" standalone="no"?>
<!DOCTYPE svg PUBLIC "-//W3C//DTD SVG 20010904//EN"
 "http://www.w3.org/TR/2001/REC-SVG-20010904/DTD/svg10.dtd">
<svg version="1.0" xmlns="http://www.w3.org/2000/svg"
 width="256.000000pt" height="256.000000pt" viewBox="0 0 256.000000 256.000000"
 preserveAspectRatio="xMidYMid meet">

<g transform="translate(0.000000,256.000000) scale(0.100000,-0.100000)"
fill="#000000" stroke="none">
<path d="M540 2391 c-72 -23 -119 -63 -145 -124 -14 -33 -16 -137 -16 -862
l-1 -825 -152 0 c-192 0 -186 5 -186 -141 0 -79 5 -114 19 -144 23 -51 89
-111 138 -124 25 -7 235 -11 601 -11 549 0 562 0 582 20 25 25 25 42 2 63 -17
15 -64 17 -476 17 l-458 0 7 23 c3 12 10 38 15 57 6 20 10 438 10 958 0 910 0
924 20 952 42 59 128 60 181 4 22 -23 24 -36 27 -132 3 -79 8 -112 19 -124 15
-17 55 -18 565 -18 l548 0 0 -208 c0 -148 3 -211 12 -220 19 -19 66 -15 78 7
6 12 10 101 10 220 l0 201 73 0 c97 0 141 14 193 62 104 95 87 254 -34 325
l-47 28 -780 2 c-429 1 -791 -2 -805 -6z"/>
<path d="M650 1810 c-11 -11 -20 -29 -20 -40 0 -11 9 -29 20 -40 19 -19 33
-20 503 -20 408 0 486 2 504 15 32 23 35 54 8 81 l-24 24 -486 0 c-472 0 -486
-1 -505 -20z"/>
<path d="M647 1532 c-22 -24 -21 -55 1 -75 16 -15 51 -17 280 -17 224 0 263 2
276 16 21 21 20 57 -2 77 -16 15 -51 17 -279 17 -239 0 -261 -1 -276 -18z"/>
<path d="M1722 1401 c-207 -61 -373 -223 -438 -428 -24 -77 -29 -236 -10 -318
53 -224 224 -403 452 -471 81 -25 247 -25 329 0 110 33 194 84 280 170 195
197 239 472 116 721 -71 144 -199 258 -351 312 -100 36 -281 43 -378 14z m287
-106 c232 -55 393 -260 393 -500 0 -291 -223 -515 -512 -515 -200 0 -373 107
-460 284 -100 202 -63 434 94 590 131 131 308 182 485 141z"/>
<path d="M1850 1210 c-18 -18 -20 -33 -20 -169 0 -121 -3 -150 -14 -154 -48
-19 -58 -128 -15 -173 36 -38 83 -49 133 -30 41 16 47 15 137 -9 115 -31 114
-31 144 0 57 56 19 100 -115 134 -52 14 -99 31 -104 39 -4 8 -17 21 -27 30
-17 15 -19 32 -19 164 0 135 -2 150 -20 168 -11 11 -29 20 -40 20 -11 0 -29
-9 -40 -20z"/>
<path d="M817 1252 c-10 -10 -17 -28 -17 -40 0 -12 -5 -22 -12 -22 -50 0 -138
-117 -138 -184 0 -113 95 -215 200 -216 80 0 134 -72 110 -146 -13 -39 -60
-74 -100 -74 -38 0 -90 36 -105 74 -21 49 -67 62 -98 28 -22 -25 -21 -54 3
-103 20 -38 82 -92 121 -104 10 -4 19 -15 19 -25 0 -30 29 -51 64 -48 24 2 35
11 48 37 9 19 30 40 45 46 37 16 88 69 109 114 21 42 23 120 5 172 -14 42 -68
102 -112 125 -17 8 -53 18 -82 21 -95 11 -137 87 -82 147 18 20 34 26 64 26
39 0 64 -19 96 -75 28 -47 113 0 100 54 -9 38 -56 93 -98 116 -21 11 -37 28
-37 38 0 24 -36 57 -63 57 -13 0 -31 -8 -40 -18z"/>
</g>
</svg>
